<svg xmlns="http://www.w3.org/2000/svg" version="1.1" xmlns:xlink="http://www.w3.org/1999/xlink" xmlns:svgjs="http://svgjs.dev/svgjs" width="128" height="128" viewBox="0 0 128 128"><g transform="matrix(0.8046875,0,0,0.8046875,12.333870967741937,12.333870967741937)"><svg viewBox="0 0 155 155" data-background-color="#ffffff" preserveAspectRatio="xMidYMid meet" height="128" width="128" xmlns="http://www.w3.org/2000/svg" xmlns:xlink="http://www.w3.org/1999/xlink"><g id="tight-bounds" transform="matrix(1,0,0,1,0.25,0.25)"><svg viewBox="0 0 154.5 154.5" height="154.5" width="154.5"><g><svg></svg></g><g><svg viewBox="0 0 154.5 154.5" height="154.5" width="154.5"><g transform="matrix(1,0,0,1,58.176630470942925,43.83165)"><svg viewBox="0 0 38.14673905811415 66.8367" height="66.8367" width="38.14673905811415"><g><svg viewBox="0 0 38.14673905811415 66.8367" height="66.8367" width="38.14673905811415"><g><svg viewBox="0 0 38.14673905811415 66.8367" height="66.8367" width="38.14673905811415"><g id="textblocktransform"><svg viewBox="0 0 38.14673905811415 66.8367" height="66.8367" width="38.14673905811415" id="textblock"><g><svg viewBox="0 0 38.14673905811415 66.8367" height="66.8367" width="38.14673905811415"><g transform="matrix(1,0,0,1,0,0)"><svg width="38.14673905811415" viewBox="1.78 -20.09 11.92 20.87" height="66.8367" data-palette-color="#7e91c6"><path d="M13.21-18.7L13.21-18.7 13.09-14.92 11.82-14.92Q11.67-17.43 10.3-18.26L10.3-18.26Q9.47-18.75 8.23-18.75L8.23-18.75Q6.88-18.75 6.19-17.91 5.49-17.07 5.49-15.75L5.49-15.75Q5.52-14.21 7.28-12.74L7.28-12.74 10.5-9.94Q12.5-8.15 13.1-6.97 13.7-5.79 13.7-4.61L13.7-4.61Q13.7-1.78 11.35-0.27L11.35-0.27Q9.67 0.81 7.1 0.78L7.1 0.78Q4.57 0.78 2.08-0.51L2.08-0.51 1.78-4.37 2.98-4.37Q3.47-2.27 4.27-1.45 5.08-0.63 7.01-0.63L7.01-0.63Q8.89-0.63 9.91-1.71 10.94-2.78 10.91-3.96L10.91-3.96Q10.91-5.59 8.72-7.52L8.72-7.52 5.49-10.28Q2.56-12.77 2.54-15.04L2.54-15.04Q2.54-17.72 4.36-18.91 6.18-20.09 8.54-20.09L8.54-20.09Q11.01-20.09 13.21-18.7Z" opacity="1" transform="matrix(1,0,0,1,0,0)" fill="#7e91c6" class="wordmark-text-0" data-fill-palette-color="primary" id="text-0"></path></svg></g></svg></g></svg></g></svg></g><g></g></svg></g></svg></g><g><path d="M0 154.5v-154.5h154.5v154.5zM148.473 148.473v-142.446h-142.446v142.446z" fill="#7e91c6" fill-rule="nonzero" stroke="none" stroke-width="1" stroke-linecap="butt" stroke-linejoin="miter" stroke-miterlimit="10" stroke-dasharray="" stroke-dashoffset="0" font-family="none" font-weight="none" font-size="none" text-anchor="none" style="mix-blend-mode: normal" data-fill-palette-color="tertiary"></path></g></svg></g><defs></defs></svg><rect width="154.5" height="154.5" fill="none" stroke="none" visibility="hidden"></rect></g></svg></g></svg>